<svg width="179" height="197" viewBox="0 0 179 197" fill="none" xmlns="http://www.w3.org/2000/svg">
<path d="M129 17.6C129 11.4394 129 8.35913 130.199 6.0061C131.254 3.93632 132.936 2.25354 135.006 1.19893C137.359 0 140.439 0 146.6 0H161.4C167.561 0 170.641 0 172.994 1.19893C175.064 2.25354 176.746 3.93632 177.801 6.0061C179 8.35913 179 11.4394 179 17.6V179.4C179 185.561 179 188.641 177.801 190.994C176.746 193.064 175.064 194.746 172.994 195.801C170.641 197 167.561 197 161.4 197H146.6C140.439 197 137.359 197 135.006 195.801C132.936 194.746 131.254 193.064 130.199 190.994C129 188.641 129 185.561 129 179.4V17.6Z" fill="black"/>
<path d="M0 17.6C0 11.4394 0 8.35913 1.19893 6.0061C2.25354 3.93632 3.93632 2.25354 6.0061 1.19893C8.35913 0 11.4394 0 17.6 0H32.4C38.5606 0 41.6409 0 43.9939 1.19893C46.0637 2.25354 47.7465 3.93632 48.8011 6.0061C50 8.35913 50 11.4394 50 17.6V117.4C50 123.561 50 126.641 48.8011 128.994C47.7465 131.064 46.0637 132.746 43.9939 133.801C41.6409 135 38.5606 135 32.4 135H17.6C11.4394 135 8.35913 135 6.0061 133.801C3.93632 132.746 2.25354 131.064 1.19893 128.994C0 126.641 0 123.561 0 117.4V17.6Z" fill="black"/>
<path d="M17.6 135C11.4394 135 8.35913 135 6.0061 133.801C3.93632 132.746 2.25354 131.064 1.19893 128.994C0 126.641 0 123.561 0 117.4L0 102.6C0 96.4394 0 93.3591 1.19893 91.0061C2.25354 88.9363 3.93632 87.2535 6.0061 86.1989C8.35913 85 11.4394 85 17.6 85H161.4C167.561 85 170.641 85 172.994 86.1989C175.064 87.2535 176.746 88.9363 177.801 91.0061C179 93.3591 179 96.4394 179 102.6V117.4C179 123.561 179 126.641 177.801 128.994C176.746 131.064 175.064 132.746 172.994 133.801C170.641 135 167.561 135 161.4 135H17.6Z" fill="black"/>
</svg>
