<svg width="191" height="199" viewBox="0 0 191 199" fill="none" xmlns="http://www.w3.org/2000/svg">
<path d="M17.6 37C11.4394 37 8.35913 37 6.0061 35.8011C3.93632 34.7465 2.25354 33.0637 1.19893 30.9939C0 28.6409 0 25.5606 0 19.4L0 17.6C0 11.4394 0 8.35913 1.19893 6.0061C2.25354 3.93632 3.93632 2.25354 6.0061 1.19893C8.35913 0 11.4394 0 17.6 0L173.4 0C179.561 0 182.641 0 184.994 1.19893C187.064 2.25354 188.746 3.93632 189.801 6.0061C191 8.35913 191 11.4394 191 17.6V19.4C191 25.5606 191 28.6409 189.801 30.9939C188.746 33.0637 187.064 34.7465 184.994 35.8011C182.641 37 179.561 37 173.4 37L17.6 37Z" fill="black"/>
<path d="M17.6 199C11.4394 199 8.35913 199 6.0061 197.801C3.93632 196.746 2.25354 195.064 1.19893 192.994C0 190.641 0 187.561 0 181.4L0 179.6C0 173.439 0 170.359 1.19893 168.006C2.25354 165.936 3.93632 164.254 6.0061 163.199C8.35913 162 11.4394 162 17.6 162L173.4 162C179.561 162 182.641 162 184.994 163.199C187.064 164.254 188.746 165.936 189.801 168.006C191 170.359 191 173.439 191 179.6V181.4C191 187.561 191 190.641 189.801 192.994C188.746 195.064 187.064 196.746 184.994 197.801C182.641 199 179.561 199 173.4 199L17.6 199Z" fill="black"/>
<path d="M0 17.6C0 11.4394 0 8.35913 1.19893 6.0061C2.25354 3.93632 3.93632 2.25354 6.0061 1.19893C8.35913 0 11.4394 0 17.6 0H19.4C25.5606 0 28.6409 0 30.9939 1.19893C33.0637 2.25354 34.7465 3.93632 35.8011 6.0061C37 8.35913 37 11.4394 37 17.6V173.4C37 179.561 37 182.641 35.8011 184.994C34.7465 187.064 33.0637 188.746 30.9939 189.801C28.6409 191 25.5606 191 19.4 191H17.6C11.4394 191 8.35913 191 6.0061 189.801C3.93632 188.746 2.25354 187.064 1.19893 184.994C0 182.641 0 179.561 0 173.4V17.6Z" fill="black"/>
<path d="M154 19.6C154 13.4394 154 10.3591 155.199 8.0061C156.254 5.93632 157.936 4.25354 160.006 3.19893C162.359 2 165.439 2 171.6 2H173.4C179.561 2 182.641 2 184.994 3.19893C187.064 4.25354 188.746 5.93632 189.801 8.0061C191 10.3591 191 13.4394 191 19.6V175.4C191 181.561 191 184.641 189.801 186.994C188.746 189.064 187.064 190.746 184.994 191.801C182.641 193 179.561 193 173.4 193H171.6C165.439 193 162.359 193 160.006 191.801C157.936 190.746 156.254 189.064 155.199 186.994C154 184.641 154 181.561 154 175.4V19.6Z" fill="black"/>
</svg>
