<svg width="575" height="595" viewBox="0 0 575 595" fill="none" xmlns="http://www.w3.org/2000/svg">
<path d="M209.6 234C203.439 234 200.359 234 198.006 232.801C195.936 231.746 194.254 230.064 193.199 227.994C192 225.641 192 222.561 192 216.4V214.6C192 208.439 192 205.359 193.199 203.006C194.254 200.936 195.936 199.254 198.006 198.199C200.359 197 203.439 197 209.6 197L365.4 197C371.561 197 374.641 197 376.994 198.199C379.064 199.254 380.746 200.936 381.801 203.006C383 205.359 383 208.439 383 214.6V216.4C383 222.561 383 225.641 381.801 227.994C380.746 230.064 379.064 231.746 376.994 232.801C374.641 234 371.561 234 365.4 234L209.6 234Z" fill="black"/>
<path d="M209.6 396C203.439 396 200.359 396 198.006 394.801C195.936 393.746 194.254 392.064 193.199 389.994C192 387.641 192 384.561 192 378.4V376.6C192 370.439 192 367.359 193.199 365.006C194.254 362.936 195.936 361.254 198.006 360.199C200.359 359 203.439 359 209.6 359H365.4C371.561 359 374.641 359 376.994 360.199C379.064 361.254 380.746 362.936 381.801 365.006C383 367.359 383 370.439 383 376.6V378.4C383 384.561 383 387.641 381.801 389.994C380.746 392.064 379.064 393.746 376.994 394.801C374.641 396 371.561 396 365.4 396H209.6Z" fill="black"/>
<path d="M192 214.6C192 208.439 192 205.359 193.199 203.006C194.254 200.936 195.936 199.254 198.006 198.199C200.359 197 203.439 197 209.6 197H211.4C217.561 197 220.641 197 222.994 198.199C225.064 199.254 226.746 200.936 227.801 203.006C229 205.359 229 208.439 229 214.6V370.4C229 376.561 229 379.641 227.801 381.994C226.746 384.064 225.064 385.746 222.994 386.801C220.641 388 217.561 388 211.4 388H209.6C203.439 388 200.359 388 198.006 386.801C195.936 385.746 194.254 384.064 193.199 381.994C192 379.641 192 376.561 192 370.4V214.6Z" fill="black"/>
<path d="M346 216.6C346 210.439 346 207.359 347.199 205.006C348.254 202.936 349.936 201.254 352.006 200.199C354.359 199 357.439 199 363.6 199H365.4C371.561 199 374.641 199 376.994 200.199C379.064 201.254 380.746 202.936 381.801 205.006C383 207.359 383 210.439 383 216.6V372.4C383 378.561 383 381.641 381.801 383.994C380.746 386.064 379.064 387.746 376.994 388.801C374.641 390 371.561 390 365.4 390H363.6C357.439 390 354.359 390 352.006 388.801C349.936 387.746 348.254 386.064 347.199 383.994C346 381.641 346 378.561 346 372.4V216.6Z" fill="black"/>
<path d="M383 423.6C383 417.439 383 414.359 384.199 412.006C385.254 409.936 386.936 408.254 389.006 407.199C391.359 406 394.439 406 400.6 406H557.4C563.561 406 566.641 406 568.994 407.199C571.064 408.254 572.746 409.936 573.801 412.006C575 414.359 575 417.439 575 423.6V577.4C575 583.561 575 586.641 573.801 588.994C572.746 591.064 571.064 592.746 568.994 593.801C566.641 595 563.561 595 557.4 595H400.6C394.439 595 391.359 595 389.006 593.801C386.936 592.746 385.254 591.064 384.199 588.994C383 586.641 383 583.561 383 577.4V423.6Z" fill="black"/>
<path d="M0 17.6C0 11.4394 0 8.35913 1.19893 6.0061C2.25354 3.93632 3.93632 2.25354 6.0061 1.19893C8.35913 0 11.4394 0 17.6 0H174.4C180.561 0 183.641 0 185.994 1.19893C188.064 2.25354 189.746 3.93632 190.801 6.0061C192 8.35913 192 11.4394 192 17.6V171.4C192 177.561 192 180.641 190.801 182.994C189.746 185.064 188.064 186.746 185.994 187.801C183.641 189 180.561 189 174.4 189H17.6C11.4394 189 8.35913 189 6.0061 187.801C3.93632 186.746 2.25354 185.064 1.19893 182.994C0 180.641 0 177.561 0 171.4V17.6Z" fill="black"/>
<path d="M525 216.6C525 210.439 525 207.359 526.199 205.006C527.254 202.936 528.936 201.254 531.006 200.199C533.359 199 536.439 199 542.6 199H557.4C563.561 199 566.641 199 568.994 200.199C571.064 201.254 572.746 202.936 573.801 205.006C575 207.359 575 210.439 575 216.6V378.4C575 384.561 575 387.641 573.801 389.994C572.746 392.064 571.064 393.746 568.994 394.801C566.641 396 563.561 396 557.4 396H542.6C536.439 396 533.359 396 531.006 394.801C528.936 393.746 527.254 392.064 526.199 389.994C525 387.641 525 384.561 525 378.4V216.6Z" fill="black"/>
<path d="M396 216.6C396 210.439 396 207.359 397.199 205.006C398.254 202.936 399.936 201.254 402.006 200.199C404.359 199 407.439 199 413.6 199H428.4C434.561 199 437.641 199 439.994 200.199C442.064 201.254 443.746 202.936 444.801 205.006C446 207.359 446 210.439 446 216.6V316.4C446 322.561 446 325.641 444.801 327.994C443.746 330.064 442.064 331.746 439.994 332.801C437.641 334 434.561 334 428.4 334H413.6C407.439 334 404.359 334 402.006 332.801C399.936 331.746 398.254 330.064 397.199 327.994C396 325.641 396 322.561 396 316.4V216.6Z" fill="black"/>
<path d="M413.6 334C407.439 334 404.359 334 402.006 332.801C399.936 331.746 398.254 330.064 397.199 327.994C396 325.641 396 322.561 396 316.4V301.6C396 295.439 396 292.359 397.199 290.006C398.254 287.936 399.936 286.254 402.006 285.199C404.359 284 407.439 284 413.6 284H557.4C563.561 284 566.641 284 568.994 285.199C571.064 286.254 572.746 287.936 573.801 290.006C575 292.359 575 295.439 575 301.6V316.4C575 322.561 575 325.641 573.801 327.994C572.746 330.064 571.064 331.746 568.994 332.801C566.641 334 563.561 334 557.4 334H413.6Z" fill="black"/>
<path d="M129 216.6C129 210.439 129 207.359 130.199 205.006C131.254 202.936 132.936 201.254 135.006 200.199C137.359 199 140.439 199 146.6 199H161.4C167.561 199 170.641 199 172.994 200.199C175.064 201.254 176.746 202.936 177.801 205.006C179 207.359 179 210.439 179 216.6V378.4C179 384.561 179 387.641 177.801 389.994C176.746 392.064 175.064 393.746 172.994 394.801C170.641 396 167.561 396 161.4 396H146.6C140.439 396 137.359 396 135.006 394.801C132.936 393.746 131.254 392.064 130.199 389.994C129 387.641 129 384.561 129 378.4V216.6Z" fill="black"/>
<path d="M0 216.6C0 210.439 0 207.359 1.19893 205.006C2.25354 202.936 3.93632 201.254 6.0061 200.199C8.35913 199 11.4394 199 17.6 199H32.4C38.5606 199 41.6409 199 43.9939 200.199C46.0637 201.254 47.7465 202.936 48.8011 205.006C50 207.359 50 210.439 50 216.6V316.4C50 322.561 50 325.641 48.8011 327.994C47.7465 330.064 46.0637 331.746 43.9939 332.801C41.6409 334 38.5606 334 32.4 334H17.6C11.4394 334 8.35913 334 6.0061 332.801C3.93632 331.746 2.25354 330.064 1.19893 327.994C0 325.641 0 322.561 0 316.4V216.6Z" fill="black"/>
<path d="M17.6 334C11.4394 334 8.35913 334 6.0061 332.801C3.93632 331.746 2.25354 330.064 1.19893 327.994C0 325.641 0 322.561 0 316.4L0 301.6C0 295.439 0 292.359 1.19893 290.006C2.25354 287.936 3.93632 286.254 6.0061 285.199C8.35913 284 11.4394 284 17.6 284H161.4C167.561 284 170.641 284 172.994 285.199C175.064 286.254 176.746 287.936 177.801 290.006C179 292.359 179 295.439 179 301.6V316.4C179 322.561 179 325.641 177.801 327.994C176.746 330.064 175.064 331.746 172.994 332.801C170.641 334 167.561 334 161.4 334H17.6Z" fill="black"/>
</svg>
