<svg width="192" height="189" viewBox="0 0 192 189" fill="none" xmlns="http://www.w3.org/2000/svg">
<path d="M0 17.6C0 11.4394 0 8.35913 1.19893 6.0061C2.25354 3.93632 3.93632 2.25354 6.0061 1.19893C8.35913 0 11.4394 0 17.6 0H174.4C180.561 0 183.641 0 185.994 1.19893C188.064 2.25354 189.746 3.93632 190.801 6.0061C192 8.35913 192 11.4394 192 17.6V171.4C192 177.561 192 180.641 190.801 182.994C189.746 185.064 188.064 186.746 185.994 187.801C183.641 189 180.561 189 174.4 189H17.6C11.4394 189 8.35913 189 6.0061 187.801C3.93632 186.746 2.25354 185.064 1.19893 182.994C0 180.641 0 177.561 0 171.4V17.6Z" fill="black"/>
</svg>
